<svg version="1.1" xmlns="http://www.w3.org/2000/svg" xmlns:xlink="http://www.w3.org/1999/xlink" width="36.74909" height="36.18056" viewBox="0,0,36.74909,36.18056"><g transform="translate(-221.80964,-161.79538)"><g data-paper-data="{&quot;isPaintingLayer&quot;:true}" fill-rule="nonzero" stroke-linejoin="miter" stroke-miterlimit="10" stroke-dasharray="" stroke-dashoffset="0" style="mix-blend-mode: normal"><path d="M255.07756,180c0,8.14608 -6.75045,14.74979 -15.07756,14.74979c-8.32711,0 -15.07756,-6.6037 -15.07756,-14.74979c0,-8.14608 6.75045,-14.74979 15.07756,-14.74979c8.32711,0 15.07756,6.6037 15.07756,14.74979z" fill="#5d5d5d" stroke="#424242" stroke-width="5" stroke-linecap="butt"/><path d="M227.70014,184.93772l11.45596,-7.78418l-0.29375,13.80589" fill="none" stroke="#424242" stroke-width="5" stroke-linecap="round"/><path d="M250.61205,187.14078l-9.50467,-11.7497" fill="none" stroke="#424242" stroke-width="5.5" stroke-linecap="round"/><path d="M257.80873,179.88566c0,9.57677 -7.89078,17.34028 -17.62455,17.34028c-9.73377,0 -17.62455,-7.76351 -17.62455,-17.34028c0,-9.57677 7.89078,-17.34028 17.62455,-17.34028c9.73377,0 17.62455,7.76351 17.62455,17.34028z" fill="none" stroke="#000000" stroke-width="1.5" stroke-linecap="butt"/></g></g></svg>