<svg version="1.1" xmlns="http://www.w3.org/2000/svg" xmlns:xlink="http://www.w3.org/1999/xlink" width="59.60821" height="74.58952" viewBox="0,0,59.60821,74.58952"><g transform="translate(-210.1959,-137.62891)"><g data-paper-data="{&quot;isPaintingLayer&quot;:true}" fill-rule="nonzero" stroke="#000000" stroke-width="2" stroke-linecap="butt" stroke-linejoin="miter" stroke-miterlimit="10" stroke-dasharray="" stroke-dashoffset="0" style="mix-blend-mode: normal"><path d="M214.07631,179.12891c-1.59081,0 -2.88041,-1.08254 -2.88041,-2.41791v-35.66418c0,-1.33538 1.2896,-2.41791 2.88041,-2.41791h51.84739c1.59081,0 2.88041,1.08254 2.88041,2.41791v35.66418c0,1.33538 -1.2896,2.41791 -2.88041,2.41791z" fill="#079205"/><path d="M233.4245,211.21843c-1.6842,0 -3.0495,-1.36531 -3.0495,-3.0495v-26.36551c0,-1.6842 1.36531,-3.0495 3.0495,-3.0495h13.15099c1.6842,0 3.0495,1.36531 3.0495,3.0495v26.36551c0,1.6842 -1.36531,3.0495 -3.0495,3.0495z" fill="#2e2828"/></g></g></svg>